<?xml version="1.0" encoding="UTF-8"?>
<svg id="Layer_2" data-name="Layer 2" xmlns="http://www.w3.org/2000/svg" xmlns:xlink="http://www.w3.org/1999/xlink" viewBox="0 0 1016.4 831.74">
  <defs>
    <style>
      .cls-1 {
        fill: url(#linear-gradient);
      }

      .cls-1, .cls-2, .cls-3, .cls-4 {
        stroke-width: 0px;
      }

      .cls-2 {
        fill: url(#linear-gradient-2);
      }

      .cls-3 {
        fill: url(#linear-gradient-3);
      }

      .cls-4 {
        fill: #18181e;
      }
    </style>
    <linearGradient id="linear-gradient" x1="253.58" y1="-4217.69" x2="575.72" y2="-4468.22" gradientTransform="translate(0 -3999.09) scale(1 -1)" gradientUnits="userSpaceOnUse">
      <stop offset=".3" stop-color="#45ede9"/>
      <stop offset=".9" stop-color="#261966"/>
    </linearGradient>
    <linearGradient id="linear-gradient-2" x1="559.04" y1="-4512.92" x2="688.7" y2="-4061.82" xlink:href="#linear-gradient"/>
    <linearGradient id="linear-gradient-3" x1="692" y1="-4057.07" x2="284.85" y2="-4192.37" xlink:href="#linear-gradient"/>
  </defs>
  <g id="Layer_1-2" data-name="Layer 1">
    <g>
      <g>
        <polygon class="cls-4" points="93.02 682.15 93.02 700.4 57.62 700.4 57.62 797.22 35.01 797.22 35.01 700.4 0 700.4 0 682.15 93.02 682.15"/>
        <path class="cls-4" d="M160.62,752.18c0-8.38-1.42-15.71-4.22-22-2.83-6.31-6.99-11.21-12.49-14.74-5.5-3.52-12.39-5.29-20.67-5.29-7.85,0-14.74,1.84-20.7,5.57-5.94,3.72-10.57,8.89-13.87,15.53-3.3,6.64-4.93,14.34-4.93,23.08v3.09c0,7.7,1.66,14.67,5.02,20.91,3.34,6.23,8.17,11.22,14.46,14.93,6.31,3.72,13.79,5.58,22.49,5.58s15.41-1.62,20.91-4.85c5.5-3.24,9.6-6.84,12.29-10.78l-10.9-11.78c-2.53,3.33-5.58,5.79-9.13,7.43-3.55,1.63-7.5,2.45-11.81,2.45s-8.35-1.03-11.61-3.09-5.75-4.87-7.43-8.45c-1.18-2.51-1.95-5.28-2.3-8.3h54.93v-9.24l-.03-.02ZM139.21,746.33h-33.18c.3-2.1.76-4.07,1.33-5.9,1.27-3.98,3.21-7.11,5.81-9.41,2.6-2.28,5.94-3.43,10-3.43,3.74,0,6.76.76,9.09,2.28,2.31,1.53,4.04,3.58,5.14,6.17,1.1,2.59,1.71,5.43,1.81,8.53v1.75Z"/>
        <path class="cls-4" d="M244.61,788.05c-.57-2.99-.86-6.78-.86-11.3v-36.75c0-6.64-1.47-12.17-4.39-16.6-2.92-4.43-6.96-7.74-12.1-9.97-5.14-2.22-10.98-3.31-17.5-3.31-7.27,0-13.61,1.24-19.01,3.72s-9.57,5.75-12.54,9.85c-2.95,4.08-4.42,8.54-4.42,13.4h21.73c0-2.21.53-4.11,1.59-5.7,1.06-1.59,2.57-2.81,4.54-3.72,1.98-.89,4.28-1.35,6.91-1.35,4.58,0,7.95,1.22,10.12,3.67s3.24,5.73,3.24,9.85v5.13h-10.66c-12.85,0-22.64,2.47-29.35,7.35-6.71,4.9-10.07,11.86-10.07,20.85,0,4.95,1.27,9.36,3.83,13.23,2.56,3.87,6.03,6.91,10.43,9.09,4.4,2.19,9.33,3.28,14.82,3.28,4.26,0,8.02-.67,11.25-1.97,3.24-1.32,6.02-3.01,8.3-5.07.85-.76,1.63-1.54,2.37-2.34.51,3.12,1.27,5.7,2.24,7.8h22.05v-1.35c-1.1-2.22-1.95-4.82-2.53-7.83v.03ZM220.95,774.62c-1.45,2.06-3.49,3.8-6.12,5.22-2.63,1.42-5.75,2.15-9.33,2.15s-6.65-1-8.73-3.01c-2.09-2-3.12-4.51-3.12-7.52,0-3.95,1.51-7.18,4.54-9.72,3.02-2.53,7.73-3.8,14.11-3.8h9.65v15.09c-.27.51-.6,1.04-.98,1.59h-.02Z"/>
        <path class="cls-4" d="M383.32,742.46v54.76h-21.81v-54.85c0-3.89-.54-6.9-1.66-9-1.1-2.12-2.68-3.57-4.7-4.34-2.03-.79-4.45-1.19-7.23-1.19s-5.14.51-7.23,1.54-3.81,2.48-5.17,4.34c-.97,1.32-1.77,2.8-2.4,4.45.02.65.03,1.32.03,2v57.06h-21.81v-54.61c0-3.84-.54-6.85-1.66-9.01-1.1-2.16-2.68-3.66-4.7-4.51-2.03-.83-4.46-1.27-7.3-1.27-3.16,0-5.88.59-8.15,1.78-2.27,1.19-4.13,2.86-5.61,5.02-.33.5-.65,1-.94,1.54v61.05h-21.82v-85.52h20.48l.71,9.33c1.72-2.09,3.69-3.92,5.88-5.49,5.02-3.6,11.27-5.41,18.69-5.41s13.99,2.33,18.89,6.99c1.68,1.6,3.07,3.55,4.17,5.87,2.04-2.92,4.54-5.43,7.44-7.53,4.95-3.55,11.02-5.34,18.25-5.34,5.69,0,10.6,1.06,14.73,3.16,4.13,2.12,7.32,5.53,9.56,10.28,2.24,4.73,3.36,11.04,3.36,18.89l.02.02Z"/>
        <path class="cls-4" d="M483.86,708.23c-4.43-8.23-10.57-14.62-18.42-19.21-7.86-4.58-16.97-6.88-27.36-6.88h-35.01v115.07h34.62c10.54,0,19.75-2.28,27.66-6.84,7.91-4.57,14.06-10.95,18.5-19.16,4.42-8.23,6.64-17.83,6.64-28.85v-5.37c0-10.96-2.21-20.55-6.64-28.76h.02ZM467.65,742.36c0,7.8-1.12,14.43-3.4,19.87-2.27,5.46-5.61,9.62-10.04,12.49-4.42,2.87-9.94,4.29-16.51,4.29h-11.93v-78.64h12.33c6.43,0,11.84,1.39,16.24,4.19,4.4,2.8,7.71,6.9,9.97,12.29,2.24,5.41,3.36,12.05,3.36,19.96v5.53h0Z"/>
        <path class="cls-4" d="M577.82,711.71l-34.15,98.39c-.79,2.1-1.81,4.42-3.09,6.91-1.27,2.5-2.92,4.87-4.98,7.11-2.04,2.24-4.64,4.07-7.74,5.49-3.12,1.42-6.87,2.13-11.3,2.13-1.32,0-2.51-.06-3.6-.15-1.07-.11-2.12-.27-3.12-.51s-2.06-.51-3.16-.83v-16.53c.53,0,1.13.03,1.83.09.68.05,1.26.08,1.72.08,4.58,0,8-.76,10.24-2.28,2.24-1.53,3.96-4.05,5.17-7.59l2.56-6.74-29.99-85.57h23.47l16.57,54.52,16.3-54.52h23.23v.02Z"/>
        <path class="cls-4" d="M660.93,742.53v54.68h-21.81v-54.76c0-3.74-.54-6.68-1.62-8.82s-2.66-3.63-4.75-4.51c-2.07-.86-4.64-1.3-7.7-1.3s-5.75.59-8.06,1.78c-2.33,1.19-4.28,2.86-5.85,5.02-.51.71-.98,1.45-1.42,2.24v60.36h-21.66v-85.52h20.4l.7,9.88c2.01-2.5,4.33-4.61,6.94-6.35,5.08-3.4,10.99-5.1,17.74-5.1,5.47,0,10.22,1.06,14.26,3.16,4.04,2.12,7.18,5.52,9.45,10.24,2.27,4.7,3.4,11.05,3.4,18.99h-.03Z"/>
        <path class="cls-4" d="M746.56,788.05c-.59-2.99-.88-6.78-.88-11.3v-36.75c0-6.64-1.47-12.17-4.39-16.6-2.92-4.43-6.96-7.74-12.1-9.97-5.14-2.22-10.98-3.31-17.5-3.31-7.27,0-13.61,1.24-19.01,3.72-5.4,2.48-9.57,5.75-12.54,9.85-2.95,4.08-4.42,8.54-4.42,13.4h21.73c0-2.21.51-4.11,1.57-5.7,1.06-1.59,2.57-2.81,4.55-3.72,1.97-.89,4.28-1.35,6.91-1.35,4.58,0,7.95,1.22,10.12,3.67s3.24,5.73,3.24,9.85v5.13h-10.66c-12.85,0-22.64,2.47-29.35,7.35-6.71,4.9-10.07,11.86-10.07,20.85,0,4.95,1.27,9.36,3.84,13.23,2.56,3.87,6.03,6.91,10.42,9.09,4.4,2.19,9.33,3.28,14.82,3.28,4.26,0,8.03-.67,11.27-1.97,3.24-1.32,6-3.01,8.29-5.07.85-.76,1.63-1.54,2.37-2.34.51,3.12,1.27,5.7,2.25,7.8h22.05v-1.35c-1.1-2.22-1.95-4.82-2.53-7.83v.03ZM722.89,774.62c-1.45,2.06-3.49,3.8-6.12,5.22s-5.75,2.15-9.33,2.15-6.65-1-8.73-3.01c-2.07-2-3.12-4.51-3.12-7.52,0-3.95,1.51-7.18,4.54-9.72,3.02-2.53,7.74-3.8,14.11-3.8h9.65v15.09c-.27.51-.6,1.04-.98,1.59h-.02Z"/>
        <path class="cls-4" d="M886.2,742.46v54.76h-21.81v-54.85c0-3.89-.54-6.9-1.66-9-1.1-2.12-2.68-3.57-4.7-4.34-2.03-.79-4.45-1.19-7.23-1.19s-5.14.51-7.23,1.54c-2.07,1.03-3.81,2.48-5.17,4.34-.95,1.32-1.75,2.78-2.39,4.42.02.67.03,1.35.03,2.03v57.06h-21.81v-54.61c0-3.84-.56-6.85-1.66-9.01-1.1-2.16-2.68-3.66-4.7-4.51-2.03-.83-4.46-1.27-7.3-1.27-3.16,0-5.87.59-8.15,1.78-2.27,1.19-4.13,2.86-5.61,5.02-.33.5-.65,1-.95,1.54v61.05h-21.81v-85.52h20.46l.71,9.33c1.72-2.09,3.69-3.92,5.88-5.49,5.04-3.6,11.27-5.41,18.69-5.41s13.99,2.33,18.89,6.99c1.68,1.6,3.07,3.55,4.17,5.87,2.04-2.92,4.54-5.43,7.44-7.53,4.95-3.55,11.04-5.34,18.25-5.34,5.69,0,10.6,1.06,14.73,3.16,4.14,2.12,7.32,5.53,9.57,10.28,2.24,4.73,3.36,11.04,3.36,18.89v.02Z"/>
        <path class="cls-4" d="M902.43,689.51c0-3.27,1.09-5.97,3.28-8.14,2.19-2.16,5.14-3.24,8.89-3.24s6.79,1.07,9.01,3.24c2.21,2.16,3.31,4.87,3.31,8.14s-1.1,5.9-3.31,8.06c-2.21,2.16-5.22,3.24-9.01,3.24s-6.7-1.07-8.89-3.24c-2.19-2.16-3.28-4.84-3.28-8.06ZM925.6,797.22h-21.81v-85.5h21.81v85.5Z"/>
        <path class="cls-4" d="M977.03,737.95l14.94-26.24h23.47l-24.89,41.89,25.85,43.63h-23.47l-15.8-27.66-15.73,27.66h-23.64l25.92-43.63-24.82-41.89h23.55l14.62,26.24Z"/>
      </g>
      <g>
        <path class="cls-1" d="M239.44,116.09c-3.05,8.53-4.66,17.33-4.66,26.32,0,69.29,95,126.99,220.83,139.74,17.03,1.73,34.59,2.63,52.59,2.63s35.6-.9,52.63-2.63c51.81,115.34,49.32,226.39-10.68,261.02-7.52,4.32-15.6,7.29-24.17,8.95-6.05,1.02-11.99,1.54-17.74,1.58-5.79,0-11.69-.56-17.74-1.58-64.81-10.9-143.95-76.92-200.3-174.51-56.62-98.01-74.17-200-50.75-261.51Z"/>
        <path class="cls-2" d="M508.2,190.98c73.99-102.6,171.47-156.02,231.47-121.39,6.43,3.72,12.18,8.31,17.29,13.68l.68.79.68.79c.41.49.79.94,1.2,1.43,0,.04.08.08.11.15.3.38.56.71.86,1.09.56.71,1.13,1.39,1.65,2.11.34.41.64.83.94,1.28.19.26.38.53.56.75.19.26.38.53.56.79.19.26.38.53.56.79.19.26.38.53.53.79.23.3.41.64.64.94.15.23.3.41.41.64.3.45.6.9.9,1.35h0c.3.45.56.86.83,1.32.41.64.83,1.32,1.2,1.95.41.71.83,1.39,1.24,2.11.23.41.49.86.71,1.28.11.23.26.45.38.68.23.41.41.79.64,1.2.19.38.41.79.6,1.17.15.26.26.53.41.79s.26.53.38.83v.04c.19.38.34.75.53,1.09.26.56.53,1.13.75,1.73,26.39,60.9,9.44,165.79-48.68,266.47-56.35,97.6-135.49,163.65-200.3,174.51,8.57-1.65,16.65-4.62,24.17-8.95,59.96-34.62,62.48-145.68,10.68-261.02-7.03-15.64-15.04-31.35-24.06-46.96-8.99-15.56-18.57-30.34-28.53-44.21h0Z"/>
        <path class="cls-3" d="M234.77,142.37c0-8.99,1.58-17.78,4.66-26.32,1.65-4.32,3.5-8.46,5.56-12.37,3.61-6.65,8.12-13.12,13.46-19.36C301.13,34.62,396.88,0,508.2,0s205.68,34.14,248.8,83.27c-5.11-5.38-10.86-9.96-17.29-13.68-60-34.62-157.48,18.76-231.47,121.39-10,13.87-19.55,28.61-28.53,44.21-9.02,15.6-17.03,31.32-24.06,46.96-125.87-12.78-220.87-70.49-220.87-139.78Z"/>
      </g>
    </g>
  </g>
</svg>